<svg width="204" height="308" viewBox="0 0 204 308" fill="none" xmlns="http://www.w3.org/2000/svg" href="svgStyle.css">
<path class="draw" d="M59.3108 63.904C55.3612 73.5587 48.306 81.8429 39.7818 87.7728C35.3634 90.8464 31.7288 93.3832 29.1267 98.2983C24.158 107.684 22.5846 116.354 22.5846 126.863C22.5846 131.811 24.1516 136.773 29.8716 136.773C32.7404 136.773 35.8098 137.072 38.6483 136.644C41.6974 136.184 44.1545 134.478 46.9392 133.276C53.3705 130.499 56.4823 124.071 57.8211 117.568C58.2848 115.316 58.349 112.644 59.3108 110.54C59.7706 109.535 60.4767 108.105 60.4767 107.043M123.436 221.885C127.044 219.261 130.689 218.97 135.095 218.97C137.735 218.97 141.508 222.469 141.508 225.091C141.508 228.542 137.768 231.061 134.804 232.378C131.03 234.055 127.711 236.437 124.019 238.078C117.603 240.93 109.796 235.854 108.312 229.172C107.473 225.399 107.136 221.667 106.498 217.837C105.776 213.504 103.615 200.587 103.615 204.979M106.53 207.894C101.018 207.894 95.8516 211.901 90.2723 213.141C86.3184 214.019 82.2798 213.898 78.2893 213.011C74.0117 212.06 70.1032 212.043 66.0148 210.226C60.7648 207.892 56.4362 202.108 52.6068 197.984C48.0112 193.035 45.1757 188.9 43.7006 182.114C42.4664 176.437 42.3333 170.33 40.9477 164.788C39.7738 160.092 38.9074 155.479 38.9074 150.635C38.9074 148.012 38.3244 145.536 38.3244 142.894C38.3244 140.557 37.9896 140.352 39.4903 142.603M129.266 218.97C125.158 215.858 125.938 211.525 124.278 207.019C123.032 203.636 121.284 200.459 119.485 197.401C117.526 194.07 107.7 195.652 104.198 195.652C101.514 195.652 98.8694 196.235 96.3285 196.235C93.8102 196.235 91.5466 197.844 89.0416 197.984C86.6592 198.116 84.3966 198.567 81.787 198.567C79.8408 198.567 74.2704 196.818 76.2166 196.818M83.212 197.984C77.2586 199.118 72.3488 197.369 69.2211 191.895C68.4804 190.599 67.9389 189.415 67.3427 188.074C66.8493 186.963 66.8101 184.331 66.1768 183.539C64.6006 181.569 65.7233 174.822 65.7233 172.334C65.7233 170.063 64.3509 159.612 65.7233 158.926M99.5348 196.235C94.972 195.366 89.5668 192.951 85.6734 190.405C82.2391 188.16 80.682 184.446 78.2893 181.369C76.4813 179.045 75.6336 173.167 75.6336 170.326C75.6336 168.201 75.0506 166.379 75.0506 164.302C75.0506 162.42 75.5293 159.935 74.4677 158.343M76.2166 165.921C78.9025 163.235 80.8802 162.056 80.8802 158.343M135.095 115.204C129.919 121.973 123.782 126.28 115.275 126.28M191.059 115.204C188.351 123.168 184.447 127.56 176.744 130.361C169.312 133.063 163.031 134.442 155.045 134.442C149.869 134.442 145.321 134.776 140.633 132.693C138.205 131.614 136.04 129.629 133.476 128.742C131.753 128.145 128.99 127.479 128.1 125.697M191.059 114.621C191.316 114.426 191.569 114.225 191.817 114.017M191.817 114.017C199.165 107.863 202.041 96.4704 195.982 88.6795C191.286 82.6418 173.485 83.2268 168.324 88.388C164.544 92.1678 159.893 93.7682 159.579 100.047C159.234 106.954 163.065 108.657 168.587 111.111L168.615 111.123C172.369 112.792 176.788 114.038 180.857 114.038C182.645 114.038 189.232 113.3 191.817 114.017ZM191.817 114.017C192.322 114.157 192.674 114.353 192.808 114.621M168.907 93.0517C161.659 93.0517 154.104 90.1495 147.078 93.3432C143.773 94.8455 139.921 95.2949 136.52 96.841C129.898 99.851 123.501 101.731 118.189 107.043M131.597 102.379C128.662 101.191 122.163 99.9491 119.971 97.3915C118.228 95.3589 117.033 92.6497 115.598 90.396C113.002 86.3157 112.36 80.3525 112.36 75.6926C112.36 73.2695 112.5 70.948 113.85 68.8266C115.484 66.2589 119.355 64.487 120.521 61.8636C121.304 60.1031 124.385 59.3032 125.768 58.0743C127.561 56.4803 130.487 56.3255 132.763 56.3255C141.284 56.3255 149.669 62.4692 149.669 71.4823V78.4778C149.669 80.6015 148.404 82.5683 147.952 84.5988C147.627 86.0654 148.174 88.2162 147.208 89.4244C145.732 91.2683 144.875 93.0517 147.92 93.0517M98.345 97.5101C98.345 97.1136 98.3845 96.6579 98.4386 96.168M98.345 97.5101C98.208 98.8705 97.9567 100.089 97.6744 100.899C96.8932 103.143 93.6923 104.649 91.5379 104.649C89.8284 104.649 85.9388 103.197 84.9716 101.659C83.2642 98.9434 83.1569 97.3652 83.1569 93.9691C83.1569 90.6192 83.8714 87.5776 87.025 86.1843C89.1348 85.2523 91.5986 86.3485 93.7107 86.7302C94.9584 86.9557 97.3601 89.0887 98.1041 90.1242C99.131 91.5532 98.6613 94.1505 98.4386 96.168M98.345 97.5101C98.3888 97.0744 98.4209 96.6242 98.4386 96.168M98.4386 96.168C98.5562 93.1279 98.0307 89.8266 96.0507 88.8426M100.118 114.038C101.107 111.536 102.753 108.599 103 105.877C103.152 104.208 102.867 102.761 103.486 101.213C104.413 98.8944 103.033 95.9092 103.745 93.5051C105.396 87.9336 103.417 80.6722 98.5632 77.3119C93.0501 73.4952 90.0391 71.4823 83.0825 71.4823C77.1523 71.4823 73.0086 76.7295 69.3506 80.6801C65.5472 84.7878 65.1404 89.9324 65.1404 95.254C65.1404 97.9726 65.322 100.734 66.5654 103.221C67.7514 105.593 68.5943 109.18 70.8404 110.864C75.8884 114.65 78.7239 117.536 85.4143 117.536C91.0699 117.536 96.6306 118.103 100.118 112.872M133.346 55.7425C131.478 50.9558 129.296 49.7473 125.768 46.4152C123.478 44.253 120.149 41.9135 117.153 40.7152C114.627 39.705 102.708 34.5642 101.284 38.8368M91.9564 21.9311C84.4618 18.8236 78.6227 11.7976 72.7188 6.51515C68.7345 2.95024 61.4495 3.57811 57.2705 5.89981C55.411 6.93288 52.0909 8.87191 49.9835 9.10607C45.0876 9.65006 44.7369 17.6139 44.7369 21.0567C44.7369 25.1908 47.6551 29.314 48.6881 33.3311C49.1429 35.0999 49.4006 36.7432 49.4006 38.5777C49.4006 41.5042 49.7112 42.1728 52.3154 40.0027M92.7052 18.7675C90.3648 18.7675 88.1111 19.057 85.9185 19.5542M85.9185 19.5542C80.4036 20.8048 75.2758 23.3689 70.1302 25.9419L69.9699 26.022C65.9302 28.0419 61.4449 29.4749 57.4688 31.4629C54.0205 33.1871 51.4872 33.1198 50.7648 37.4544C50.0116 41.9734 54.4723 40.9198 57.5983 40.9198C65.7275 40.9198 72.2978 39.1749 78.1313 33.3413C80.8625 30.6102 84.1566 28.3635 87.1671 26.022C90.1558 23.6975 88.4744 21.2276 85.9185 19.5542ZM85.9185 19.5542C85.4797 19.2669 85.015 19.0031 84.5438 18.7675M138.593 134.442C139.69 142.537 139.759 151.632 139.759 159.8C139.759 163.61 140.342 167.128 140.342 170.876C140.342 173.449 141.713 176.124 140.471 178.746C139.49 180.817 138.832 183.044 137.88 185.159C137.181 186.712 135.708 190.3 136.844 186.325M140.342 158.343C143.899 167.68 148.196 177.531 147.305 187.782C147.157 189.477 147.358 194.47 145.88 195.652C143.846 197.279 141.642 197.924 139.176 199.02C135.851 200.498 127.647 204.048 126.966 197.919C126.247 191.451 136.081 191.37 140.342 189.239M146.171 195.069C150.363 194.171 152.164 193.838 153.296 198.243C153.946 200.771 154.236 203.097 154.333 205.692C154.431 208.353 156.664 210.495 156.664 213.011C156.664 213.819 157.247 217.762 157.247 215.472M136.261 199.15C138.982 202.707 139.845 205.708 141.508 209.772C142.511 212.225 143.74 214.4 143.839 217.092C143.99 221.146 144.691 225.278 145.556 229.172C146.878 235.122 160.451 229.111 163.077 227.423C166.959 224.927 174.768 214.922 170.072 210.226C168.412 208.566 166.062 207.894 163.789 207.894C160.978 207.894 160.925 209.047 158.964 210.517C156.554 212.325 152.902 211.922 151.418 214.889M28.9971 138.522C28.2166 142.522 28.1669 146.716 27.7988 150.764C27.5019 154.031 26.7385 157.254 26.6653 160.545C26.5995 163.507 25.4994 166.147 25.4994 169.127V176.123C25.4994 180.85 26.0824 185.457 26.0824 190.114C26.0824 193.169 26.7086 194.902 28.4142 197.271C29.7262 199.093 31.2432 200.653 32.4949 198.567M19.0869 128.029C16.8662 128.896 14.7941 129.754 12.6744 130.814C10.8989 131.702 10.8352 133.556 9.63006 134.895C7.62491 137.123 7.34017 142.356 6.81244 145.259C5.34212 153.345 5.09596 161.377 5.09596 169.71C5.09596 174.652 4.6413 180.052 5.7113 184.867C6.89193 190.18 7.54984 197.171 10.3426 201.935C13.1248 206.681 15.4073 209.125 20.5443 211.1C23.8866 212.386 25.9726 212.041 28.9971 210.226M44.7369 194.486C37.9741 196.402 33.8759 197.638 30.1307 203.489C26.9062 208.528 28.9971 212.177 28.9971 217.772C28.9971 220.779 28.4142 223.607 28.4142 226.549C28.4142 229.584 36.6082 228.225 38.9074 228.751C43.5865 229.82 49.5265 228.88 54.3233 228.88C59.9994 228.88 65.6037 230.046 71.229 230.046C77.3196 230.046 83.3546 230.682 89.3654 231.666C91.2644 231.976 107.963 232.329 107.696 231.795M60.4768 230.046C60.4768 244.433 62.3312 259.213 60.9302 273.574C60.2317 280.732 60.4768 287.948 60.4768 295.143C60.4768 297.526 60.6168 299.952 60.4768 302.333C60.3946 303.729 55.7132 302.367 54.8415 302.203C52.7317 301.808 46.7502 302.866 47.1983 300.066C48.2546 293.464 46.9425 286.721 47.7813 280.116C48.6141 273.557 48.8176 266.587 48.8176 259.971V240.604C48.8176 239.139 48.4712 232.788 48.8176 232.961M95.9047 231.922C95.9047 244.607 97.5914 257.639 96.3171 270.301C95.6819 276.613 95.9047 282.975 95.9047 289.319C95.9047 291.42 96.0321 293.559 95.9047 295.658C95.83 296.889 91.5723 295.688 90.7795 295.544C88.8606 295.195 83.4204 296.129 83.828 293.659C84.7886 287.839 83.5953 281.893 84.3582 276.069C85.1156 270.287 85.3008 264.141 85.3008 258.308V241.231C85.3008 239.939 84.9857 234.339 85.3008 234.492M121.687 241.705C120.118 251.292 120.521 260.905 120.521 270.594C120.521 278.478 119.938 286.296 119.938 294.139C119.938 296.177 120.766 302.241 119.226 303.952C119.058 304.138 109.191 303.776 108.992 302.981C107.368 296.485 108.821 289.443 108.247 282.836C107.658 276.064 107.113 269.223 107.113 262.4V231.795M149.669 230.629C148.049 245.615 150.012 260.771 148.633 275.776C148.065 281.946 148.503 288.297 148.503 294.495C148.503 296.674 149.689 299.7 149.086 301.75C148.378 304.158 140.142 301.167 138.01 301.167C134.775 301.167 136.261 266.89 136.261 262.886C136.261 256.43 135.678 250.076 135.678 243.649C135.678 239.41 135.523 235.839 134.512 231.795M141.908 89.065C144.993 84.7143 146.322 77.0483 142.512 72.6038C140.082 69.7692 136.06 66.8759 132.3 69.0421C127.16 72.0026 126.568 81.1903 130.628 85.1663C133.871 88.3417 137.568 89.065 141.908 89.065ZM103.434 35.2144C99.223 40.5403 95.6839 47.9648 90.499 51.3379C87.1174 54.1993 83.6357 55.5025 79.6819 57.2323C71.6377 60.7516 62.2482 62.7379 53.4813 62.7379C47.4972 62.7379 38.5559 56.2926 38.3244 50.0425C38.2333 47.5827 38.3244 46.4648 40.6562 42.9175C42.6821 41.4646 43.9762 40.0027 46.6822 40.0027C49.597 40.0027 52.5177 40.5856 55.4325 40.5856C56.9346 40.5856 60.7521 40.9944 62.1827 40.5856C63.4833 40.214 65.786 40.5107 67.1829 40.0027C70.0525 38.9592 72.5184 36.7133 75.1832 35.2144C78.423 33.392 80.6734 31.2247 83.795 29.218C89.7739 25.3744 90.6015 17.2138 98.1839 17.2138C105.142 17.2138 103.434 31.2636 103.434 35.2144Z" stroke="white" stroke-width="8" stroke-linecap="round" stroke-linejoin="round"/>
<style>
path {
  stroke-dasharray: 100;
  stroke-dashoffset: 100;
  animation: draw 2000ms ease-in-out 4ms forwards;
  color: blue;
  background-color: blue;
}

@keyframes draw {
  100% {
    stroke-dashoffset: 0;
  }
}
</style>
</svg>
