<svg width="489" height="309" viewBox="0 0 489 309" fill="none" xmlns="http://www.w3.org/2000/svg">
    <path d="M51 64.0599C55.3071 73.4843 59.0606 81.7545 69.4139 85.4688C80.1903 89.335 91.9964 88.8512 102.454 84.2324C120.438 76.2897 127.984 52.1501 113.033 37.2499C96.7976 21.0709 72.7206 39.4822 67.1937 56.4464C63.099 69.0149 67.7769 86.4217 81.5592 91" stroke="#EEEEEE" stroke-width="6" stroke-linecap="round" stroke-linejoin="round" />
    <path d="M97 85C100.869 124.774 108.95 164.28 111.736 204.143C112.335 212.705 112.76 222.269 114.875 230.626C115.24 232.071 117.951 242.091 116.649 239.606" stroke="#EEEEEE" stroke-width="10" stroke-linecap="round" stroke-linejoin="round" />
    <path d="M116 238C110.996 250.981 107.968 263.653 105.049 277.206C103.141 286.061 99.2246 294.302 97 303" stroke="#EEEEEE" stroke-width="10" stroke-linecap="round" stroke-linejoin="round" />
    <path d="M118 235C134.308 251.456 146.675 270.799 162 288" stroke="#EEEEEE" stroke-width="10" stroke-linecap="round" stroke-linejoin="round" />
    <path d="M206.84 77.8082C190.641 84.5735 199.206 110.589 212.529 116.574C229.522 124.208 248.811 112.956 253.517 95.008C257.964 78.0498 230.605 59.4242 216.537 68.2822C208.33 73.4499 194.896 96.9226 205.676 105.196" stroke="#EEEEEE" stroke-width="6" stroke-linecap="round" stroke-linejoin="round" />
    <path d="M222 113C234.817 139.856 227.785 171.155 233.019 199.773C234.617 208.517 236 218.414 236 227" stroke="#EEEEEE" stroke-width="10" stroke-linecap="round" stroke-linejoin="round" />
    <path d="M213 303C219.676 285.279 227.828 268.021 232.754 249.702C234.572 242.941 236.099 236.045 237.203 229.133C237.204 229.123 237.629 222.335 238.445 223.053C240.988 225.288 242.598 230.011 244.463 232.755C248.593 238.831 253.241 244.569 257.938 250.22C267.563 261.799 276.544 273.848 286 285.536" stroke="#EEEEEE" stroke-width="10" stroke-linecap="round" stroke-linejoin="round" />
    <path d="M321.377 67.2053C321.638 73.8123 321.036 83.3892 327.343 87.6708C333.045 91.5414 341.314 91.8736 347.801 90.5569C362.436 87.5863 371.774 74.1963 368.258 59.4651C364.327 42.9985 340.308 33.0297 327.278 45.8214C318.244 54.6896 302.966 83.9716 319.016 92" stroke="#EEEEEE" stroke-width="6" stroke-linecap="round" stroke-linejoin="round" />
    <path d="M346 90C346 100.025 347.338 109.724 348.444 119.687C350.834 141.195 349.722 162.712 351.568 184.206C352.659 196.911 353.847 209.601 355.099 222.292C355.507 226.425 353.892 237.02 357 240" stroke="#EEEEEE" stroke-width="10" stroke-linecap="round" stroke-linejoin="round" />
    <path d="M337 287C343.214 272.725 347.411 257.928 352.037 243.092C352.753 240.795 354.626 225.586 358.778 231.259C362.215 235.955 380.498 269.957 386 267.213" stroke="#EEEEEE" stroke-width="10" stroke-linecap="round" stroke-linejoin="round" />
    <path d="M6 153.807C11.1232 134.131 23.6332 120.514 42.6441 115.36C56.6443 111.565 72.3031 113.488 86.3953 115.692C95.4603 117.11 105.834 120.502 113.976 124.64C122.857 129.155 132.989 132.817 141.231 138.296C145.433 141.089 149.775 143.501 153.815 146.582C155.038 147.514 160.579 151.33 162.096 151.42C171.38 151.976 180.838 155 190.198 155C208.854 155 226.409 150.228 244.252 145.189C253.668 142.53 266.445 138 273.593 131.137C281.028 123.998 289.235 117.754 298.175 112.643C305.819 108.271 312.416 107.273 321.126 107.273C327.005 107.273 332.868 105.199 338.926 106.345C344.87 107.469 351.217 109.226 357.183 109.66C376.133 111.036 395.685 115.174 413.258 122.122C425.118 126.811 437.262 131.419 447.881 138.892C453.136 142.591 459.334 143.554 464.899 146.383C467.738 147.826 489.88 149.546 482.503 151.42" stroke="#EEEEEE" stroke-width="10" stroke-linecap="round" stroke-linejoin="round" />
    <path d="M147.682 82C146.224 70.8372 147.142 61.1388 150.075 50.2348C150.923 47.0794 152.701 36.9573 156.056 35.0086C157.063 34.4238 172.05 63.9734 174 67.8238" stroke="#EFA07F" stroke-width="6" stroke-linecap="round" stroke-linejoin="round" />
    <path d="M138 65C140.939 61.2135 143.237 56.1342 148.459 55.6536C153.673 55.1738 158.707 57.0968 163.826 57.6797C174.042 58.8433 178.507 55.0967 181 45" stroke="#EFA07F" stroke-width="6" stroke-linecap="round" stroke-linejoin="round" />
    <path d="M187 36C190.615 45.0108 193 55.9728 193 66" stroke="#F9E18F" stroke-width="6" stroke-linecap="round" stroke-linejoin="round" />
    <path d="M183 32.6918C184.762 33.7249 195.529 43.0967 197.359 39.9356C199.505 36.228 199.722 23.8409 201.462 27.7557C204.009 33.487 205.646 50 213 50" stroke="#F9E18F" stroke-width="6" stroke-linecap="round" stroke-linejoin="round" />
    <path d="M223 33C223.736 36.8664 223.963 45.9817 228 48" stroke="#94ED5E" stroke-width="6" stroke-linecap="round" stroke-linejoin="round" />
    <path d="M241 28.9148C241.141 35.0499 242.277 42.5866 249.508 43.9201C255.703 45.0626 257 33.6362 257 29.5588C257 24.818 251.184 22.1269 246.968 21.0579C242.774 19.9942 241 33.8951 241 37.0293" stroke="#6ECCF4" stroke-width="6" stroke-linecap="round" stroke-linejoin="round" />
    <path d="M254 26C258.034 35.0829 265.714 43.2354 265.904 53.6333C265.966 57.0129 266.613 61.589 263.457 63.7789C261.604 65.0647 259.952 65.9208 259.952 63.2449" stroke="#6ECCF4" stroke-width="6" stroke-linecap="round" stroke-linejoin="round" />
    <path d="M272.369 19.8125C272.369 25.0433 270.36 37.2514 279.631 34.6377C283.871 33.4423 286.622 23.0787 283.935 19.5546C280.869 15.5337 269.132 13.9524 267.796 20.0703C266.397 26.4789 266.052 33.6929 273.579 34.8955" stroke="#F085FA" stroke-width="6" stroke-linecap="round" stroke-linejoin="round" />
    <path d="M296.503 3C293.991 4.47558 286.91 7.47668 288.143 11.6356C288.575 13.0944 295.023 14.414 296.436 15.18C305.597 20.1454 302.768 29.6206 292.891 32" stroke="#F27A90" stroke-width="6" stroke-linecap="round" stroke-linejoin="round" />
    <path d="M407 201.711C411.561 208.768 415.453 214.281 421.634 205.411C423.126 203.27 426.217 196.602 421.433 196.034C415.32 195.308 410.125 206.37 415.458 209.748" stroke="#EEEEEE" stroke-width="10" stroke-linecap="round" stroke-linejoin="round" />
    <path d="M444.606 194C443.155 195.778 435.4 205.724 441.013 207.576C445.674 209.115 449.759 206.258 450.785 202.325C451.62 199.126 450.006 197.332 446.187 197.458C442.734 197.572 443.312 202.327 443.312 204.374" stroke="#EEEEEE" stroke-width="10" stroke-linecap="round" stroke-linejoin="round" />
    <path d="M481.522 209.123C477.938 212.534 474.996 205.018 474 203.198C474 198.366 477.239 190.81 482.819 197.891C484.946 200.591 484.01 206.755 481.522 209.123Z" stroke="#EEEEEE" stroke-width="10" stroke-linecap="round" stroke-linejoin="round" />
    <path d="M14.1671 226.835C24.3644 220.464 16.0983 215.448 10.5918 222.253C6.11798 227.782 7.26745 236 15.3589 236" stroke="#EEEEEE" stroke-width="10" stroke-linecap="round" stroke-linejoin="round" />
    <path d="M35.3298 218.909C29.2735 235.018 47.6858 219.224 41.836 215.05C34.7884 210.02 28.5249 224.697 34.2144 224.697" stroke="#EEEEEE" stroke-width="10" stroke-linecap="round" stroke-linejoin="round" />
    <path d="M60.1997 217.793C61.5606 221.083 62.2078 224.424 66.1984 223.956C69.3629 223.584 71.0772 219.513 70.9973 216.561C70.8946 212.763 64.8409 213.988 62.8658 215.191C59.7222 217.107 59 220.53 59 223.956" stroke="#EEEEEE" stroke-width="10" stroke-linecap="round" stroke-linejoin="round" />
    <style>
    path {
        stroke-dasharray: 10000;
        stroke-dashoffset: 10000;
        animation: draw 20000ms ease-in-out 4ms forwards;
      }
      
      @keyframes draw {
        100% {
          stroke-dashoffset: 0;
        }
      }
    </style>
</svg>
